# xmcd CD database file
#
# Track frame offsets:
#	150
#	93940
#	100519
#	167769
#	226951
#
# Disc length: 3689 seconds
#
# Revision: 0
# Processed by: cddbd v1.5.1PL0 Copyright (c) Steve Scherf et al.
# Submitted via: CDex 1.51
#
DISCID=2c0e6705
DTITLE=KVHW - 99-07-30 Disc2
DYEAR=1999
DGENRE=Jazz
TTITLE0=Express Yourself
TTITLE1=tuning-
TTITLE2=Its Up To You
TTITLE3=Five Before Funk
TTITLE4=Footprints
EXTD=YEAR: 1999
EXTT0=
EXTT1=
EXTT2=
EXTT3=
EXTT4=
PLAYORDER=
